<!-- Importante: el viewBox no se toca, tiene que estar igual que el original -->
<svg xmlns="http://www.w3.org/2000/svg">

    <symbol id="menu" viewBox="0 0 30 26">
        <path d="M2 2H28M2 13H28M2 24H28" stroke-width="4" stroke-linecap="round"/>
    </symbol>

    <symbol id="close" viewBox="0 0 26 24">
        <path d="M2 2.00002L24 22M2 22L24 2.00002" stroke-width="4" stroke-linecap="round"/>
    </symbol>

    <symbol id="chevron" viewBox="0 0 28 16"> 
        <path d="M2 2L14 13L26 2"  stroke-width="4" stroke-linecap="round" fill="none"/>
    </symbol>

    <symbol id="flecha" viewBox="0 0 23 20"> 
        <path d="M1.5 10H21.5M21.5 10L14 1.5M21.5 10L14 18.5"  stroke-width="3" stroke-linecap="round" stroke-linejoin="round"/>
    </symbol>

    <symbol id="seguridad" viewBox="0 0 39 47"> 
        <path d="M19.5 0L0 8.54545V21.3636C0 33.2205 8.32 44.3082 19.5 47C30.68 44.3082 39 33.2205 39 21.3636V8.54545L19.5 0ZM19.5 23.4786H34.6667C33.5183 32.2805 27.56 40.1209 19.5 42.5777V23.5H4.33333V11.3227L19.5 4.67864V23.4786Z" fill="currentColor"/>
    </symbol>

    <symbol id="chat" viewBox="0 0 47 47">
        <path d="M42.3 0H4.7C2.115 0 0 2.115 0 4.7V47L9.4 37.6H42.3C44.885 37.6 47 35.485 47 32.9V4.7C47 2.115 44.885 0 42.3 0Z" fill="black"/>
    </symbol>

    <symbol id="check" viewBox="0 0 55 55">
        <path d="M27.5 0C12.3118 0 0 12.3118 0 27.5C0 42.6882 12.3118 55 27.5 55C42.6882 55 55 42.6882 55 27.5C55 12.3118 42.6882 0 27.5 0ZM22 42.3885L9.05575 29.4442L12.9442 25.5558L22 34.6115L42.0557 14.5558L45.9443 18.4442L22 42.3885Z" fill="currentColor"/>
    </symbol>

    <symbol id="filter" viewBox="0 0 45 45">
        <path d="M0.598382 4.52813C6.31062 11.8125 16.8585 25.3125 16.8585 25.3125V42.1875C16.8585 43.7344 18.131 45 19.6863 45H25.342C26.8973 45 28.1698 43.7344 28.1698 42.1875V25.3125C28.1698 25.3125 38.6894 11.8125 44.4016 4.52813C45.8438 2.67188 44.5147 0 42.1676 0H2.83238C0.485268 0 -0.843816 2.67188 0.598382 4.52813Z" fill="currentColor"/>
    </symbol>
    

</svg>