<!-- Importante: el viewBox no se toca, tiene que estar igual que el original -->
<svg xmlns="http://www.w3.org/2000/svg">

    <symbol id="menu" viewBox="0 0 30 26">
        <path d="M2 2H28M2 13H28M2 24H28" stroke-width="4" stroke-linecap="round"/>
    </symbol>

    <symbol id="close" viewBox="0 0 26 24">
        <path d="M2 2.00002L24 22M2 22L24 2.00002" stroke-width="4" stroke-linecap="round"/>
    </symbol>

    <symbol id="chevron" viewBox="0 0 28 16"> 
        <path d="M2 2L14 13L26 2"  stroke-width="4" stroke-linecap="round" fill="none"/>
    </symbol>

    <symbol id="flecha" viewBox="0 0 23 20"> 
        <path d="M1.5 10H21.5M21.5 10L14 1.5M21.5 10L14 18.5"  stroke-width="3" stroke-linecap="round" stroke-linejoin="round"/>
    </symbol>

    <symbol id="seguridad" viewBox="0 0 27 33"> 
            <path d="M13.125 0L0 5.83333V14.5833C0 22.6771 5.6 30.2458 13.125 32.0833C20.65 30.2458 26.25 22.6771 26.25 14.5833V5.83333L13.125 0ZM13.125 16.0271H23.3333C22.5604 22.0354 18.55 27.3875 13.125 29.0646V16.0417H2.91667V7.72917L13.125 3.19375V16.0271Z" fill="currentColor"/>
    </symbol>

    <symbol id="chat" viewBox="0 0 40 40">
        <path d="M33.3335 3.3335H6.66683C4.8335 3.3335 3.3335 4.8335 3.3335 6.66683V36.6668L10.0002 30.0002H33.3335C35.1668 30.0002 36.6668 28.5002 36.6668 26.6668V6.66683C36.6668 4.8335 35.1668 3.3335 33.3335 3.3335Z" fill="currentColor"/>
    </symbol>

    <symbol id="check" viewBox="0 0 55 55">
        <path d="M27.5 0C12.3118 0 0 12.3118 0 27.5C0 42.6882 12.3118 55 27.5 55C42.6882 55 55 42.6882 55 27.5C55 12.3118 42.6882 0 27.5 0ZM22 42.3885L9.05575 29.4442L12.9442 25.5558L22 34.6115L42.0557 14.5558L45.9443 18.4442L22 42.3885Z" fill="currentColor"/>
    </symbol>

    <symbol id="filter" viewBox="0 0 45 45">
        <path d="M0.598382 4.52813C6.31062 11.8125 16.8585 25.3125 16.8585 25.3125V42.1875C16.8585 43.7344 18.131 45 19.6863 45H25.342C26.8973 45 28.1698 43.7344 28.1698 42.1875V25.3125C28.1698 25.3125 38.6894 11.8125 44.4016 4.52813C45.8438 2.67188 44.5147 0 42.1676 0H2.83238C0.485268 0 -0.843816 2.67188 0.598382 4.52813Z" fill="currentColor"/>
    </symbol>
    

</svg>