<!-- Importante: el viewBox no se toca, tiene que estar igual que el original -->
<svg xmlns="http://www.w3.org/2000/svg">

    <symbol id="menu" viewBox="0 0 30 26">
        <path d="M2 2H28M2 13H28M2 24H28" stroke-width="4" stroke-linecap="round"/>
    </symbol>

    <symbol id="close" viewBox="0 0 26 24">
        <path d="M2 2.00002L24 22M2 22L24 2.00002" stroke-width="4" stroke-linecap="round"/>
    </symbol>

    <symbol id="chevron" viewBox="0 0 28 16"> 
        <path d="M2 2L14 13L26 2"  stroke-width="4" stroke-linecap="round" fill="none"/>
    </symbol>

    <symbol id="flecha" viewBox="0 0 23 20"> 
        <path d="M1.5 10H21.5M21.5 10L14 1.5M21.5 10L14 18.5"  stroke-width="3" stroke-linecap="round" stroke-linejoin="round"/>
    </symbol>

    <symbol id="seguridad" viewBox="0 0 27 33"> 
            <path d="M13.125 0L0 5.83333V14.5833C0 22.6771 5.6 30.2458 13.125 32.0833C20.65 30.2458 26.25 22.6771 26.25 14.5833V5.83333L13.125 0ZM13.125 16.0271H23.3333C22.5604 22.0354 18.55 27.3875 13.125 29.0646V16.0417H2.91667V7.72917L13.125 3.19375V16.0271Z" fill="currentColor"/>
    </symbol>

   
</svg>